<?xml version="1.0" encoding="UTF-8"?>
<svg width="433px" height="431px" viewBox="0 0 433 431" version="1.1" xmlns="http://www.w3.org/2000/svg" xmlns:xlink="http://www.w3.org/1999/xlink">
    <title>Combined Shape Copy 4</title>
    <defs>
        <linearGradient x1="16.9855577%" y1="12.6896303%" x2="85.2348987%" y2="99.3654862%" id="linearGradient-1">
            <stop stop-color="#CCCCCC" offset="0%"></stop>
            <stop stop-color="#6F6F6F" offset="100%"></stop>
        </linearGradient>
    </defs>
    <g id="Page-1" stroke="none" stroke-width="1" fill="none" fill-rule="evenodd">
        <path d="M216.5,0 C336.069648,0 433,96.9303517 433,216.5 C433,227.446987 432.18753,238.204212 430.619602,248.714664 C425.034932,278.803847 413.740015,307.977563 398.981298,333.051165 C366.428782,383.913353 313.19383,420.264954 251.139508,430.243783 C250.786178,422.804954 268.290896,375.541084 275.388194,348.657472 C276.642852,343.946014 278.733949,342.691093 283.334362,342.713109 C298.170144,342.713109 313.027937,342.470932 327.88573,342.206738 C340.036103,341.96456 344.372378,337.517297 344.482435,325.386395 C344.636516,306.496532 344.944678,287.60667 344.790597,268.694792 C344.256413,264.979628 346.755633,261.507221 350.447564,260.835024 C358.437755,258.171069 366.3399,255.176872 374.131987,252.028562 C382.386317,248.616058 385.269829,242.627663 382.540397,234.305556 C380.455304,227.940885 378.400772,221.567481 376.344255,215.195532 L374.02812,208.028242 C365.51997,181.754367 356.770381,155.570277 345.494966,130.191153 C319.499331,71.4300321 262.379371,34.4208734 198.149682,36.6445052 C154.610845,38.1416038 116.706964,54.0372686 87.4976429,86.7092445 C53.1596321,125.039373 44.6631756,169.489992 60.2693612,218.47594 C67.6652405,241.680968 80.0797521,262.155994 95.2236953,281.089888 C97.6669769,284.150134 98.0411731,286.17562 95.773984,289.610141 C81.8406757,310.723634 68.171506,332.035274 54.4142902,353.280864 C53.6266257,354.478365 52.8389612,355.653313 51.8576439,357.088176 C19.5234812,319.264747 0,270.16235 0,216.5 C0,96.9303517 96.9303517,0 216.5,0 Z M217.298926,76.0985479 L217.607784,76.1674951 L269.318246,89.376126 C270.360548,89.6372041 271.258,90.1867843 271.944338,90.9198934 L312.759137,132.480449 C313.274414,132.96785 313.701362,133.565506 314.000484,134.257995 C314.39683,135.175562 314.519015,136.142866 314.403225,137.068023 L310.123284,180.581895 C309.931169,182.541991 308.685614,184.234983 306.888281,185.010392 L306.669984,185.098995 L270.130884,199.001295 L248.387689,233.944717 C248.290111,234.106861 248.183076,234.265489 248.066484,234.419895 C247.479035,235.198676 246.721112,235.773053 245.883886,236.130657 C245.864791,236.137655 245.84607,236.145555 245.827302,236.153351 C245.774213,236.176418 245.720291,236.197722 245.666079,236.21814 L245.598752,236.242253 C245.546312,236.261952 245.493283,236.2802 245.440012,236.297612 C245.415521,236.305145 245.390866,236.313042 245.366147,236.320765 C245.317709,236.336237 245.26933,236.350546 245.220779,236.364174 C245.183491,236.374455 245.145784,236.384644 245.107945,236.394428 C245.066502,236.405214 245.024835,236.415423 244.983062,236.425135 C244.940776,236.434998 244.898855,236.444249 244.856791,236.453006 C244.819716,236.46061 244.782301,236.467968 244.744816,236.474931 C244.694405,236.48447 244.643769,236.493155 244.592954,236.501124 L244.510432,236.513194 C244.440453,236.523285 244.369872,236.53183 244.299003,236.538989 C244.285398,236.540152 244.272382,236.54142 244.259361,236.542641 C244.214996,236.547003 244.169937,236.550656 244.124775,236.553748 L243.938518,236.563208 L243.764,236.566 L243.803,236.565 L243.751884,236.566395 L204.707184,236.566395 L171.246084,272.875995 C170.201184,274.007295 168.753984,274.617495 167.274384,274.617495 C166.588584,274.617495 165.894684,274.487895 165.238584,274.217895 C163.223453,273.396723 161.905532,271.45045 161.877792,269.290405 L161.879784,269.058195 L162.773484,239.239395 L157.095384,225.096795 L119.060484,229.810995 C117.027696,230.075803 115.099752,229.17983 113.963136,227.538327 L113.830584,227.337795 L88.8366843,187.788195 C88.1203405,186.659258 87.8525026,185.307254 88.0776652,183.994702 L88.1292843,183.732795 L97.8303843,140.079195 C97.8804712,139.855195 97.9443592,139.635497 98.0215402,139.421208 C98.0287442,139.405245 98.0346109,139.389252 98.0405581,139.373274 C98.2297713,138.859639 98.4967234,138.377924 98.8334458,137.943434 L99.0075843,137.730195 L131.402184,100.048995 C131.827434,99.5505076 132.343641,99.1367748 132.918245,98.8240758 L133.167984,98.6962951 L176.069279,78.2089386 C176.786517,77.8532839 177.565258,77.6671502 178.346479,77.649683 L216.033684,76.0054951 C216.465684,75.9860551 216.885588,76.0184551 217.298926,76.0985479 Z M205.525856,209.072821 C202.307355,211.519138 198.325234,213.012734 193.999812,213.133291 L182.193,245.061 L198.367584,227.507895 C199.33069,226.46093 200.662117,225.842079 202.073736,225.772896 L202.339284,225.766395 L227.639,225.766 L205.525856,209.072821 Z M174.441855,199.442769 L111.172,202.917 L121.128684,218.670795 L159.889884,213.867495 C162.246723,213.55656 164.502417,214.851295 165.475042,216.995564 L165.567984,217.212795 L173.214384,236.261295 C173.357859,236.617892 173.462526,236.987423 173.526905,237.363588 L183.464198,210.484809 C179.247417,208.056694 175.99928,204.135325 174.441855,199.442769 Z M239.567082,174.072301 L212.89497,188.495088 C213.248923,189.98475 213.436284,191.538942 213.436284,193.136895 C213.436284,195.723438 212.945386,198.195325 212.051674,200.464472 L242.295,223.295 L260.507,194.024 L254.650771,178.91324 C254.015805,178.974009 253.372175,179.005095 252.721284,179.005095 C247.685168,179.005095 243.083709,177.144105 239.567082,174.072301 Z M106.78,149.589 L99.1533843,183.900195 L104.565,192.463 L173.932099,188.653258 C173.965062,188.509308 173.999577,188.365951 174.035628,188.223204 L106.78,149.589 Z M302.771,144.997 L272.701049,158.001291 C272.717342,158.332406 272.725584,158.665638 272.725584,159.000795 C272.725584,165.547499 269.58075,171.359687 264.719353,175.009088 L269.614,187.639 L299.703984,176.191695 L302.771,144.997 Z M192.552528,143.91976 C191.30371,145.822224 189.739226,147.498927 187.933547,148.8754 L193.886753,173.137663 C199.262311,173.257571 204.114728,175.497965 207.640529,179.05537 L233.632328,165.000628 C233.077977,163.235163 232.761785,161.364244 232.721404,159.425522 L192.552528,143.91976 Z M156.353516,137.595527 L119.405,144.387 L179.420402,178.859368 C180.617319,177.684607 181.961309,176.659173 183.422207,175.813229 L177.791631,152.864686 C177.142093,152.928324 176.483442,152.960895 175.817184,152.960895 C166.366039,152.960895 158.445716,146.406671 156.353516,137.595527 Z M182.889,95.397 L180.713918,113.555964 C189.394802,115.740155 195.821484,123.597859 195.821484,132.956595 C195.821484,133.172336 195.818069,133.387279 195.81129,133.601373 L234.061,148.365 L182.889,95.397 Z M271.112,105.487 L262.99977,141.835539 C265.483315,143.325876 267.616692,145.339938 269.247195,147.725017 L299.672,134.569 L271.112,105.487 Z M215.706984,86.8297951 L190.683,87.92 L242.651632,141.711939 C245.567014,140.010246 248.951677,139.024863 252.564311,138.997098 L261.591,98.552 L215.706984,86.8297951 Z M172.43,91.914 L138.848784,107.951895 L116.51,133.938 L156.870725,126.520648 C158.911393,120.511352 163.730721,115.785544 169.798304,113.87363 L172.43,91.914 Z" id="Combined-Shape-Copy-4" fill="url(#linearGradient-1)" fill-rule="nonzero"></path>
    </g>
</svg>